<svg width="20" height="20" viewBox="0 0 20 20" fill="none" xmlns="http://www.w3.org/2000/svg">
<path d="M13.75 9.99998C13.7501 9.91789 13.734 9.8366 13.7026 9.76077C13.6711 9.68494 13.625 9.61606 13.5669 9.5581L7.31691 3.3081C7.0727 3.06388 6.67723 3.06388 6.43316 3.3081C6.1891 3.55232 6.18895 3.94779 6.43316 4.19185L12.2413 9.99998L6.43316 15.8081C6.18895 16.0523 6.18895 16.4478 6.43316 16.6919C6.67738 16.9359 7.07285 16.9361 7.31691 16.6919L13.5669 10.4419C13.625 10.3839 13.6711 10.315 13.7026 10.2392C13.734 10.1634 13.7501 10.0821 13.75 9.99998Z" fill="black"/>
</svg>
