<svg width="20" height="20" viewBox="0 0 20 20" fill="none" xmlns="http://www.w3.org/2000/svg">
<path d="M6.24996 9.99998C6.24988 9.91789 6.26601 9.8366 6.29744 9.76077C6.32886 9.68494 6.37496 9.61606 6.43309 9.5581L12.6831 3.3081C12.9273 3.06388 13.3228 3.06388 13.5668 3.3081C13.8109 3.55232 13.8111 3.94779 13.5668 4.19185L7.75871 9.99998L13.5668 15.8081C13.8111 16.0523 13.8111 16.4478 13.5668 16.6919C13.3226 16.9359 12.9271 16.9361 12.6831 16.6919L6.43309 10.4419C6.37496 10.3839 6.32886 10.315 6.29744 10.2392C6.26601 10.1634 6.24988 10.0821 6.24996 9.99998Z" fill="black"/>
</svg>
