<svg width="18" height="18" viewBox="0 0 18 18" fill="none" xmlns="http://www.w3.org/2000/svg">
<g clip-path="url(#clip0_2_205)">
<path d="M16.0342 12.6847C15.4748 12.2127 15.0252 11.6242 14.717 10.9602C14.4088 10.2963 14.2494 9.57299 14.25 8.841V6.75C14.25 4.11075 12.2895 1.926 9.74999 1.56V0.75C9.74999 0.551088 9.67097 0.360322 9.53032 0.21967C9.38967 0.0790176 9.1989 0 8.99999 0C8.80108 0 8.61031 0.0790176 8.46966 0.21967C8.32901 0.360322 8.24999 0.551088 8.24999 0.75V1.56C5.70974 1.926 3.74999 4.11075 3.74999 6.75V8.841C3.75028 9.57448 3.59012 10.2991 3.28073 10.9642C2.97134 11.6292 2.52021 12.2185 1.95899 12.6908C1.75616 12.8656 1.61159 13.0982 1.54465 13.3575C1.47771 13.6168 1.49158 13.8904 1.58442 14.1415C1.67726 14.3927 1.84462 14.6095 2.0641 14.763C2.28359 14.9164 2.5447 14.9991 2.81249 15H15.1875C15.9112 15 16.5 14.4113 16.5 13.6875C16.5 13.3035 16.3327 12.9405 16.0342 12.6847ZM8.99999 18C9.64801 17.9991 10.2759 17.7748 10.7778 17.365C11.2798 16.9551 11.6251 16.3848 11.7555 15.75H6.24449C6.37492 16.3848 6.72021 16.9551 7.22214 17.365C7.72408 17.7748 8.35198 17.9991 8.99999 18Z" fill="white"/>
</g>
<defs>
<clipPath id="clip0_2_205">
<rect width="18" height="18" fill="white"/>
</clipPath>
</defs>
</svg>
