<svg width="26" height="26" viewBox="0 0 26 26" fill="none" xmlns="http://www.w3.org/2000/svg">
<path d="M19.5 2.16666V4.33332M6.5 2.16666V4.33332" stroke="black" stroke-opacity="0.6" stroke-width="1.5" stroke-linecap="round" stroke-linejoin="round"/>
<path d="M10.8333 18.4166L10.8333 14.4595C10.8333 14.2517 10.6852 14.0833 10.5025 14.0833H9.75M14.7655 18.4166L16.2329 14.4616C16.3015 14.2766 16.1556 14.0833 15.9474 14.0833H14.0833" stroke="black" stroke-opacity="0.6" stroke-width="1.5" stroke-linecap="round"/>
<path d="M2.70825 13.2635C2.70825 8.5431 2.70825 6.18289 4.06471 4.71645C5.42118 3.25 7.60437 3.25 11.9708 3.25H14.0291C18.3955 3.25 20.5787 3.25 21.9351 4.71645C23.2916 6.18289 23.2916 8.5431 23.2916 13.2635V13.8198C23.2916 18.5402 23.2916 20.9004 21.9351 22.3669C20.5787 23.8333 18.3955 23.8333 14.0291 23.8333H11.9708C7.60437 23.8333 5.42118 23.8333 4.06471 22.3669C2.70825 20.9004 2.70825 18.5402 2.70825 13.8198V13.2635Z" stroke="black" stroke-opacity="0.6" stroke-width="1.5" stroke-linecap="round" stroke-linejoin="round"/>
<path d="M6.5 8.66666H19.5" stroke="black" stroke-opacity="0.6" stroke-width="1.5" stroke-linecap="round" stroke-linejoin="round"/>
</svg>
