<svg width="32" height="33" viewBox="0 0 32 33" fill="none" xmlns="http://www.w3.org/2000/svg">
<path opacity="0.4" fill-rule="evenodd" clip-rule="evenodd" d="M11.9291 7.59528H20.1193V5.68832H11.9291V7.59528ZM10.0658 5.7662V5.77569C9.42649 5.83384 8.79401 5.96081 8.17869 6.15186V6.14474C8.16039 6.15244 8.14317 6.15836 8.12665 6.16404C8.10494 6.1715 8.08444 6.17854 8.06431 6.18865C8.01513 6.20051 7.9671 6.21831 7.92135 6.24086C7.78639 6.28477 7.65143 6.33698 7.52448 6.39038C7.49074 6.40343 7.457 6.41856 7.42326 6.43369C7.38952 6.44882 7.35578 6.46395 7.32204 6.47701C7.27572 6.49896 7.22739 6.52299 7.17907 6.54702C7.13075 6.57105 7.08243 6.59508 7.0361 6.61703L6.80736 6.74875C6.76506 6.77032 6.72591 6.79562 6.68597 6.82143C6.66218 6.8368 6.63811 6.85236 6.61292 6.86742C6.26866 7.08932 5.94956 7.3492 5.66134 7.64468L5.64419 7.66248C5.60634 7.7066 5.56865 7.74941 5.53147 7.79164L5.53145 7.79166L5.53145 7.79166C5.46864 7.863 5.40729 7.93268 5.34911 8.00423L5.33195 8.02085C4.39638 9.31193 3.92745 10.9032 4.00866 12.5159V13.0273H5.85578V12.5112C5.85578 10.2636 6.57175 8.86456 8.16496 8.14782C8.77343 7.89031 9.4162 7.7313 10.0704 7.67316H10.0876V5.77451L10.0658 5.7662ZM26.6638 7.99756L26.6718 8.01417C27.6063 9.30644 28.0729 10.8989 27.9906 12.5116V13.0278H26.1446V12.4985C26.1835 11.5469 25.9925 10.5999 25.5876 9.74432C25.1987 9.01215 24.5765 8.44374 23.8251 8.13521C23.2269 7.87771 22.5933 7.71751 21.9471 7.66055V5.77139C22.5864 5.83073 23.2189 5.95651 23.8354 6.14756V6.13807C23.87 6.15379 23.8965 6.16313 23.9418 6.17916L23.9498 6.18198C23.9708 6.18942 23.9905 6.19686 24.0099 6.20422C24.0369 6.21446 24.0635 6.22452 24.0927 6.23419C24.2192 6.27568 24.3374 6.32458 24.4591 6.37489L24.4805 6.38371C24.5366 6.40343 24.5895 6.42789 24.6372 6.44992C24.6526 6.45706 24.6675 6.46395 24.6818 6.47033C24.7824 6.51424 24.8853 6.56645 24.9677 6.61036C25.0226 6.63886 25.0761 6.66935 25.1263 6.69796C25.1534 6.71342 25.1796 6.72833 25.2044 6.74208C25.2454 6.76471 25.281 6.78892 25.3153 6.8122C25.3403 6.82921 25.3646 6.84572 25.3897 6.86074C25.7351 7.08384 26.0577 7.3449 26.3493 7.638L26.3596 7.6558C26.4671 7.76379 26.5689 7.87771 26.6638 7.99756Z" fill="white"/>
<path d="M22.0001 4.44248V8.64452C22.0001 9.17397 21.5705 9.6028 21.0401 9.6028C20.5097 9.6028 20.0801 9.17397 20.0801 8.64452V4.45206C20.0753 3.92261 20.5025 3.49019 21.0329 3.48659C21.5633 3.483 21.9965 3.90824 22.0001 4.43768V4.44248Z" fill="white"/>
<path d="M11.9199 4.45772V8.64938C11.9199 9.18112 11.4898 9.61226 10.9593 9.61226C10.4289 9.61226 9.99994 9.18112 9.99994 8.64938V4.45772C9.99994 3.92598 10.4289 3.49603 10.9593 3.49603C11.4898 3.49603 11.9199 3.92598 11.9199 4.45772Z" fill="white"/>
<path fill-rule="evenodd" clip-rule="evenodd" d="M3.99982 23.3668V13.0278H27.9998V23.3668C27.9998 27.8753 25.4819 30.1532 20.4919 30.1532H11.4962C6.5177 30.1532 3.99982 27.8753 3.99982 23.3668ZM14.8954 18.7756C14.8954 19.4011 15.399 19.9086 16.0056 19.9086C16.6122 19.9086 17.1043 19.4011 17.1043 18.7638C17.1043 18.1501 16.6122 17.6426 16.0056 17.6308H15.9942C15.3876 17.6426 14.8954 18.1501 14.8954 18.7756ZM21.4877 19.9086C20.8811 19.9086 20.389 19.4011 20.389 18.7756C20.389 18.1501 20.8697 17.6426 21.4877 17.6426C22.0943 17.6426 22.5864 18.1501 22.5864 18.7756C22.5864 19.4011 22.0943 19.9086 21.4877 19.9086ZM21.4877 24.7476C20.8811 24.7476 20.389 24.2401 20.3775 23.6146C20.3775 22.9891 20.8697 22.4816 21.4763 22.4816H21.4877C22.0943 22.4816 22.5864 22.9891 22.5864 23.6146C22.5864 24.2401 22.0943 24.7476 21.4877 24.7476ZM16.0056 24.7477C15.399 24.7477 14.8954 24.2401 14.8954 23.6146C14.8954 22.9891 15.3876 22.4816 15.9942 22.4698H16.0056C16.6122 22.4816 17.0929 22.9891 17.1043 23.6028C17.1043 24.2401 16.6122 24.7477 16.0056 24.7477ZM9.4136 18.7756C9.4136 19.4011 9.90573 19.9086 10.5123 19.9086C11.1303 19.9086 11.6225 19.3893 11.611 18.7638C11.611 18.1383 11.1189 17.6308 10.5238 17.6308H10.5123C9.90573 17.6308 9.4136 18.1501 9.4136 18.7756ZM10.5121 24.7477C9.90547 24.7477 9.41334 24.2401 9.41334 23.6146C9.4019 22.9891 9.89403 22.4698 10.5121 22.4698C11.1186 22.4698 11.6108 22.9773 11.6108 23.6028C11.6108 24.2283 11.1186 24.7477 10.5121 24.7477Z" fill="white"/>
</svg>
