<svg width="24" height="24" viewBox="0 0 24 24" fill="none" xmlns="http://www.w3.org/2000/svg">
<g clip-path="url(#clip0_70_6350)">
<path d="M11.9995 1.81555C6.19253 1.81555 1.48535 6.5235 1.48535 12.3297C1.48535 15.2105 2.64521 17.8189 4.52162 19.7184C4.18759 20.1463 3.67424 20.8021 2.97001 21.7064C2.78517 21.9436 2.70213 22.2445 2.73916 22.5429C2.77618 22.8413 2.93023 23.1128 3.16742 23.2976C3.40461 23.4825 3.70552 23.5655 4.00393 23.5285C4.30235 23.4915 4.57384 23.3374 4.75867 23.1002C4.75867 23.1002 5.70688 21.8826 6.28181 21.1484C7.92886 22.2197 9.88993 22.847 12.0003 22.847C14.1107 22.847 16.0725 22.2197 17.7204 21.1484C18.2945 21.8826 19.2427 23.1002 19.2427 23.1002C19.4278 23.3368 19.6991 23.4902 19.9972 23.527C20.2953 23.5638 20.5958 23.4809 20.8328 23.2965C20.9502 23.2051 21.0485 23.0914 21.122 22.962C21.1954 22.8327 21.2427 22.6901 21.2611 22.5424C21.2794 22.3948 21.2686 22.2449 21.229 22.1015C21.1895 21.958 21.122 21.8238 21.0306 21.7064C20.3264 20.8021 19.813 20.1455 19.479 19.7176C21.4264 17.7523 22.5173 15.0965 22.5137 12.3297C22.5137 6.5235 17.8066 1.81555 11.9995 1.81555ZM3.51107 12.3297C3.51107 7.6495 7.32007 3.84127 12.0003 3.84127C16.6821 3.84127 20.4896 7.6495 20.4896 12.3297C20.4896 17.0123 16.6829 20.8213 12.0003 20.8213C7.31853 20.8213 3.51107 17.0123 3.51107 12.3297Z" fill="#FF2500"/>
<path d="M12.6931 10.9036L12.6985 7.95586C12.7029 7.86451 12.6888 7.77321 12.657 7.68748C12.6251 7.60176 12.5762 7.52339 12.5131 7.45712C12.4501 7.39086 12.3743 7.33808 12.2903 7.30198C12.2062 7.26588 12.1157 7.24721 12.0243 7.2471C11.9328 7.247 11.8423 7.26546 11.7582 7.30137C11.6741 7.33728 11.5981 7.38988 11.535 7.45601C11.4718 7.52213 11.4227 7.60038 11.3906 7.68604C11.3586 7.77169 11.3442 7.86296 11.3485 7.95432L11.3431 10.8836C10.9788 11.0485 10.6896 11.344 10.5327 11.7118L5.64462 11.7025C5.47116 11.7105 5.30743 11.7849 5.1874 11.9104C5.06736 12.0359 5.00023 12.2028 4.99993 12.3764C4.99964 12.55 5.0662 12.7171 5.1858 12.843C5.30541 12.9689 5.46888 13.0439 5.64231 13.0525L10.5935 13.0609C10.7261 13.32 10.9276 13.5375 11.1758 13.6896C11.424 13.8417 11.7093 13.9224 12.0004 13.923C12.2095 13.9231 12.4166 13.8819 12.6098 13.8019C12.803 13.7219 12.9785 13.6046 13.1263 13.4567C13.2742 13.3088 13.3914 13.1332 13.4713 12.94C13.5512 12.7468 13.5922 12.5397 13.592 12.3306C13.5916 12.0322 13.507 11.7401 13.348 11.4876C13.189 11.2352 12.962 11.0328 12.6931 10.9036ZM1.21836 1.65781C0.477343 2.39337 0.0431785 3.3828 0.00360446 4.42616C-0.0359696 5.46951 0.321998 6.48899 1.00517 7.27857L6.84142 1.49003C6.0571 0.800795 5.0405 0.434806 3.99683 0.465947C2.95317 0.497089 1.96019 0.923041 1.21836 1.65781ZM22.784 1.65781C22.0419 0.923096 21.0487 0.49726 20.0049 0.466262C18.9612 0.435264 17.9445 0.801413 17.1601 1.4908L22.9948 7.27934C23.678 6.48976 24.0362 5.4704 23.997 4.42702C23.9579 3.38365 23.5244 2.39398 22.784 1.65781Z" fill="#FF2500"/>
</g>
<defs>
<clipPath id="clip0_70_6350">
<rect width="24" height="24" fill="white"/>
</clipPath>
</defs>
</svg>
