<svg width="12" height="12" viewBox="0 0 12 12" fill="none" xmlns="http://www.w3.org/2000/svg">
<path fill-rule="evenodd" clip-rule="evenodd" d="M0.410828 0.41084C0.567102 0.254614 0.779025 0.166851 0.999995 0.166851C1.22097 0.166851 1.43289 0.254614 1.58916 0.41084L5.99999 4.82167L10.4108 0.41084C10.4877 0.331248 10.5797 0.267763 10.6813 0.224089C10.783 0.180415 10.8923 0.157426 11.003 0.156465C11.1136 0.155503 11.2234 0.176588 11.3258 0.218488C11.4282 0.260389 11.5212 0.322267 11.5995 0.400511C11.6777 0.478755 11.7396 0.571798 11.7815 0.674212C11.8234 0.776625 11.8445 0.886358 11.8435 0.997008C11.8426 1.10766 11.8196 1.21701 11.7759 1.31868C11.7322 1.42035 11.6688 1.5123 11.5892 1.58917L7.17833 6.00001L11.5892 10.4108C11.741 10.568 11.825 10.7785 11.8231 10.997C11.8212 11.2155 11.7335 11.4245 11.579 11.579C11.4245 11.7335 11.2155 11.8212 10.997 11.8231C10.7785 11.825 10.568 11.741 10.4108 11.5892L5.99999 7.17834L1.58916 11.5892C1.43199 11.741 1.22149 11.825 1.00299 11.8231C0.784496 11.8212 0.575486 11.7335 0.420979 11.579C0.266473 11.4245 0.178832 11.2155 0.176933 10.997C0.175034 10.7785 0.25903 10.568 0.410828 10.4108L4.82166 6.00001L0.410828 1.58917C0.254603 1.4329 0.16684 1.22098 0.16684 1.00001C0.16684 0.779037 0.254603 0.567113 0.410828 0.41084Z" fill="black"/>
</svg>
