<svg width="20" height="20" viewBox="0 0 20 20" fill="none" xmlns="http://www.w3.org/2000/svg">
<path d="M5.62508 4.58333C5.40407 4.58333 5.19211 4.49554 5.03583 4.33926C4.87955 4.18298 4.79175 3.97101 4.79175 3.75V0.833333C4.79175 0.61232 4.87955 0.400358 5.03583 0.244078C5.19211 0.0877974 5.40407 0 5.62508 0C5.8461 0 6.05806 0.0877974 6.21434 0.244078C6.37062 0.400358 6.45841 0.61232 6.45841 0.833333V3.75C6.45841 3.97101 6.37062 4.18298 6.21434 4.33926C6.05806 4.49554 5.8461 4.58333 5.62508 4.58333ZM9.58342 4.58333C9.3624 4.58333 9.15044 4.49554 8.99416 4.33926C8.83788 4.18298 8.75008 3.97101 8.75008 3.75V0.833333C8.75008 0.61232 8.83788 0.400358 8.99416 0.244078C9.15044 0.0877974 9.3624 0 9.58342 0C9.80443 0 10.0164 0.0877974 10.1727 0.244078C10.329 0.400358 10.4167 0.61232 10.4167 0.833333V3.75C10.4167 3.97101 10.329 4.18298 10.1727 4.33926C10.0164 4.49554 9.80443 4.58333 9.58342 4.58333ZM13.5417 4.58333C13.3207 4.58333 13.1088 4.49554 12.9525 4.33926C12.7962 4.18298 12.7084 3.97101 12.7084 3.75V0.833333C12.7084 0.61232 12.7962 0.400358 12.9525 0.244078C13.1088 0.0877974 13.3207 0 13.5417 0C13.7628 0 13.9747 0.0877974 14.131 0.244078C14.2873 0.400358 14.3751 0.61232 14.3751 0.833333V3.75C14.3751 3.97101 14.2873 4.18298 14.131 4.33926C13.9747 4.49554 13.7628 4.58333 13.5417 4.58333Z" fill="black"/>
<path d="M15.2084 1.875H3.95841C3.35076 1.87544 2.76812 2.11703 2.33845 2.5467C1.90877 2.97638 1.66719 3.55901 1.66675 4.16667V17.7083C1.66719 18.316 1.90877 18.8986 2.33845 19.3283C2.76812 19.758 3.35076 19.9996 3.95841 20H15.2084C15.8161 19.9996 16.3987 19.758 16.8284 19.3283C17.2581 18.8986 17.4996 18.316 17.5001 17.7083V4.16667C17.4996 3.55901 17.2581 2.97638 16.8284 2.5467C16.3987 2.11703 15.8161 1.87544 15.2084 1.875ZM5.83342 6.66667H10.0001C10.2211 6.66667 10.4331 6.75446 10.5893 6.91074C10.7456 7.06702 10.8334 7.27899 10.8334 7.5C10.8334 7.72101 10.7456 7.93297 10.5893 8.08926C10.4331 8.24554 10.2211 8.33333 10.0001 8.33333H5.83342C5.6124 8.33333 5.40044 8.24554 5.24416 8.08926C5.08788 7.93297 5.00008 7.72101 5.00008 7.5C5.00008 7.27899 5.08788 7.06702 5.24416 6.91074C5.40044 6.75446 5.6124 6.66667 5.83342 6.66667ZM14.1667 15H5.83342C5.6124 15 5.40044 14.9122 5.24416 14.7559C5.08788 14.5996 5.00008 14.3877 5.00008 14.1667C5.00008 13.9457 5.08788 13.7337 5.24416 13.5774C5.40044 13.4211 5.6124 13.3333 5.83342 13.3333H14.1667C14.3878 13.3333 14.5997 13.4211 14.756 13.5774C14.9123 13.7337 15.0001 13.9457 15.0001 14.1667C15.0001 14.3877 14.9123 14.5996 14.756 14.7559C14.5997 14.9122 14.3878 15 14.1667 15ZM14.1667 11.6667H5.83342C5.6124 11.6667 5.40044 11.5789 5.24416 11.4226C5.08788 11.2663 5.00008 11.0543 5.00008 10.8333C5.00008 10.6123 5.08788 10.4004 5.24416 10.2441C5.40044 10.0878 5.6124 10 5.83342 10H14.1667C14.3878 10 14.5997 10.0878 14.756 10.2441C14.9123 10.4004 15.0001 10.6123 15.0001 10.8333C15.0001 11.0543 14.9123 11.2663 14.756 11.4226C14.5997 11.5789 14.3878 11.6667 14.1667 11.6667Z" fill="black"/>
</svg>
