<svg width="19" height="22" viewBox="0 0 19 22" fill="none" xmlns="http://www.w3.org/2000/svg">
<g id="Group">
<path id="Vector" d="M9.50082 21.6195C10.7968 21.6195 11.9128 20.8366 12.4025 19.7193H6.59912C7.08881 20.8366 8.20487 21.6195 9.50082 21.6195ZM16.0458 10.4661V9.07849C16.0458 6.13022 14.086 3.63135 11.401 2.81517V1.90015C11.401 0.852406 10.5486 0 9.50082 0C8.45308 0 7.60067 0.852406 7.60067 1.90015V2.81517C4.91555 3.63135 2.95586 6.13017 2.95586 9.07849V10.4661C2.95586 13.0559 1.96871 15.5115 0.176283 17.3808C0.0903403 17.4704 0.032625 17.5833 0.0103125 17.7054C-0.012 17.8275 0.0020745 17.9535 0.0507861 18.0677C0.0994978 18.1819 0.180698 18.2793 0.284293 18.3477C0.387888 18.4161 0.509308 18.4526 0.633459 18.4525H18.3682C18.4923 18.4526 18.6137 18.4161 18.7173 18.3476C18.8209 18.2792 18.9021 18.1819 18.9508 18.0677C18.9995 17.9535 19.0136 17.8275 18.9913 17.7054C18.969 17.5833 18.9113 17.4704 18.8254 17.3808C17.0329 15.5115 16.0458 13.0558 16.0458 10.4661ZM10.1342 2.56427C9.92573 2.54417 9.71448 2.53353 9.50082 2.53353C9.28716 2.53353 9.0759 2.54417 8.86743 2.56427V1.90015C8.86743 1.5509 9.15157 1.26677 9.50082 1.26677C9.85006 1.26677 10.1342 1.5509 10.1342 1.90015V2.56427ZM17.7348 9.07849C17.7348 9.42828 18.0184 9.71187 18.3682 9.71187C18.718 9.71187 19.0016 9.42828 19.0016 9.07849C19.0016 6.54073 18.0133 4.15486 16.2189 2.36041C15.9715 2.11309 15.5705 2.11305 15.3231 2.36041C15.0758 2.60776 15.0758 3.00878 15.3231 3.25614C16.8783 4.81134 17.7348 6.87909 17.7348 9.07849ZM0.633459 9.71187C0.983255 9.71187 1.26684 9.42828 1.26684 9.07849C1.26684 6.87913 2.12334 4.81139 3.67851 3.25618C3.92587 3.00882 3.92587 2.60781 3.67851 2.36045C3.43119 2.11309 3.03014 2.11309 2.78278 2.36045C0.988322 4.15491 7.63429e-05 6.54073 7.63429e-05 9.07849C7.63429e-05 9.42828 0.283663 9.71187 0.633459 9.71187Z" fill="black"/>
</g>
</svg>
