<svg width="18" height="19" viewBox="0 0 18 19" fill="none" xmlns="http://www.w3.org/2000/svg">
<g id="elements">
<path id="Vector" d="M14.1947 0.778905V2.5098M3.80933 0.778905V2.5098" stroke="black" stroke-opacity="0.6" stroke-width="1.5" stroke-linecap="round" stroke-linejoin="round"/>
<path id="Vector_2" d="M7.27113 13.7607L7.27112 10.5994C7.27112 10.4335 7.15278 10.2989 7.0068 10.2989H6.40568M10.4124 13.7607L11.5847 10.6011C11.6395 10.4534 11.5229 10.2989 11.3566 10.2989H9.86748" stroke="black" stroke-opacity="0.6" stroke-width="1.5" stroke-linecap="round"/>
<path id="Vector_3" d="M0.778905 9.64396C0.778905 5.87293 0.778905 3.98741 1.86255 2.81591C2.9462 1.6444 4.6903 1.6444 8.1785 1.6444H9.82285C13.3111 1.6444 15.0552 1.6444 16.1388 2.81591C17.2224 3.98741 17.2224 5.87293 17.2224 9.64396V10.0884C17.2224 13.8594 17.2224 15.7449 16.1388 16.9164C15.0552 18.0879 13.3111 18.0879 9.82285 18.0879H8.1785C4.6903 18.0879 2.9462 18.0879 1.86255 16.9164C0.778905 15.7449 0.778905 13.8594 0.778905 10.0884V9.64396Z" stroke="black" stroke-opacity="0.6" stroke-width="1.5" stroke-linecap="round" stroke-linejoin="round"/>
<path id="Vector 4049" d="M3.80933 5.9716H14.1947" stroke="black" stroke-opacity="0.6" stroke-width="1.5" stroke-linecap="round" stroke-linejoin="round"/>
</g>
</svg>
