<svg width="17" height="17" viewBox="0 0 17 17" fill="none" xmlns="http://www.w3.org/2000/svg">
<g id="Group">
<path id="Vector" d="M15.7536 1.2443C14.5084 0 12.5051 0 8.49854 0C4.49195 0 2.49036 0 1.24436 1.2443C0.600106 1.88855 0.28988 2.73509 0.139442 3.95729C0.593046 3.45215 1.13587 3.03495 1.74072 2.72659C2.40537 2.38831 3.11676 2.25062 3.9038 2.18688C4.66449 2.12483 5.60112 2.12483 6.74513 2.12483H10.252C11.3968 2.12483 12.3326 2.12483 13.0933 2.18688C13.8812 2.25147 14.5926 2.38831 15.2564 2.72659C15.8612 3.03493 16.404 3.45214 16.8576 3.95729C16.708 2.73509 16.3978 1.88855 15.7536 1.2443Z" fill="black"/>
<path id="Vector_2" fill-rule="evenodd" clip-rule="evenodd" d="M0 10.1992C0 7.81943 5.066e-08 6.62952 0.463214 5.72009C0.870638 4.9205 1.52073 4.27041 2.32032 3.86299C3.22975 3.39978 4.41965 3.39978 6.79947 3.39978H10.1992C12.579 3.39978 13.7689 3.39978 14.6784 3.86299C15.4779 4.27041 16.128 4.9205 16.5355 5.72009C16.9987 6.62952 16.9987 7.81943 16.9987 10.1992C16.9987 12.5791 16.9987 13.769 16.5355 14.6784C16.128 15.478 15.4779 16.1281 14.6784 16.5355C13.7689 16.9987 12.579 16.9987 10.1992 16.9987H6.79947C4.41965 16.9987 3.22975 16.9987 2.32032 16.5355C1.52073 16.1281 0.870638 15.478 0.463214 14.6784C5.066e-08 13.769 0 12.5791 0 10.1992ZM8.9498 13.1995C8.83028 13.3189 8.66826 13.3859 8.49934 13.3859C8.33041 13.3859 8.16839 13.3189 8.04887 13.1995L5.92404 11.0747C5.86141 11.0163 5.81118 10.9459 5.77634 10.8678C5.74149 10.7896 5.72276 10.7051 5.72125 10.6196C5.71974 10.534 5.73548 10.4489 5.76755 10.3696C5.79961 10.2902 5.84733 10.2181 5.90786 10.1576C5.96839 10.097 6.04049 10.0493 6.11986 10.0173C6.19924 9.98519 6.28426 9.96945 6.36985 9.97096C6.45544 9.97247 6.53985 9.9912 6.61804 10.026C6.69623 10.0609 6.76661 10.1111 6.82497 10.1737L7.86189 11.2107V7.64944C7.86189 7.48038 7.92905 7.31824 8.04859 7.1987C8.16814 7.07915 8.33027 7.01199 8.49934 7.01199C8.6684 7.01199 8.83054 7.07915 8.95008 7.1987C9.06963 7.31824 9.13679 7.48038 9.13679 7.64944V11.2107L10.1737 10.1737C10.2321 10.1111 10.3024 10.0609 10.3806 10.026C10.4588 9.9912 10.5432 9.97247 10.6288 9.97096C10.7144 9.96945 10.7994 9.98519 10.8788 10.0173C10.9582 10.0493 11.0303 10.097 11.0908 10.1576C11.1513 10.2181 11.1991 10.2902 11.2311 10.3696C11.2632 10.4489 11.2789 10.534 11.2774 10.6196C11.2759 10.7051 11.2572 10.7896 11.2223 10.8678C11.1875 10.9459 11.1373 11.0163 11.0746 11.0747L8.9498 13.1995Z" fill="black"/>
</g>
</svg>
