<svg width="4" height="16" viewBox="0 0 4 16" fill="none" xmlns="http://www.w3.org/2000/svg">
<g id="elements">
<path id="Ellipse 1334" d="M1.75 0.5C1.05964 0.5 0.5 1.05964 0.5 1.75C0.5 2.44036 1.05964 3 1.75 3C2.44036 3 3 2.44036 3 1.75C3 1.05964 2.44036 0.5 1.75 0.5Z" stroke="black"/>
<path id="Ellipse 1335" d="M1.75 6.75C1.05964 6.75 0.5 7.30964 0.5 8C0.5 8.69036 1.05964 9.25 1.75 9.25C2.44036 9.25 3 8.69036 3 8C3 7.30964 2.44036 6.75 1.75 6.75Z" stroke="black"/>
<path id="Ellipse 1336" d="M1.75 13C1.05964 13 0.5 13.5596 0.5 14.25C0.5 14.9404 1.05964 15.5 1.75 15.5C2.44036 15.5 3 14.9404 3 14.25C3 13.5596 2.44036 13 1.75 13Z" stroke="black"/>
</g>
</svg>
