<svg width="20" height="20" viewBox="0 0 20 20" fill="none" xmlns="http://www.w3.org/2000/svg">
<g id="Group">
<path id="Vector" d="M18.6931 3.32661C15.8321 3.16177 13.0945 2.10514 10.8647 0.305067C10.6194 0.10764 10.314 0 9.99909 0C9.68422 0 9.3788 0.10764 9.13351 0.305067C6.90363 2.10478 4.16598 3.16074 1.30513 3.32461C0.965552 3.34184 0.644685 3.48542 0.405558 3.72714C0.16643 3.96886 0.0263244 4.29126 0.0127605 4.63101C-0.121486 8.34783 0.655941 16.5469 9.56029 19.4582C9.84529 19.5521 10.1529 19.5521 10.4379 19.4582C19.3563 16.5409 20.1277 8.34783 19.9874 4.63101C19.9733 4.29129 19.8327 3.96911 19.5932 3.72776C19.3537 3.48641 19.0327 3.34332 18.6931 3.32661ZM10.0011 4.27636C10.4943 4.2811 10.9751 4.43172 11.3828 4.70923C11.7906 4.98673 12.1071 5.37871 12.2925 5.83578C12.4778 6.29286 12.5238 6.79457 12.4245 7.2777C12.3252 7.76084 12.0852 8.20379 11.7346 8.55074C11.3841 8.89769 10.9386 9.13313 10.4545 9.22738C9.97036 9.32162 9.46915 9.27048 9.01403 9.08037C8.55891 8.89027 8.17023 8.56971 7.89697 8.15909C7.62371 7.74848 7.47809 7.26617 7.47847 6.77294C7.48218 6.10743 7.74998 5.47063 8.22301 5.00248C8.69604 4.53434 9.33559 4.27316 10.0011 4.27636ZM14.1447 13.5995H5.85348V12.6117C5.85422 12.3689 5.91794 12.1306 6.0384 11.9198C6.15887 11.7091 6.33196 11.5332 6.54075 11.4095L8.63459 10.5459L9.8368 11.4135C9.8827 11.4472 9.93813 11.4654 9.99509 11.4656H10.0191C10.0762 11.4661 10.1319 11.4478 10.1774 11.4135L11.3796 10.5459L13.4735 11.4095C13.6823 11.5332 13.8554 11.7091 13.9758 11.9198C14.0963 12.1306 14.16 12.3689 14.1607 12.6117L14.1447 13.5995Z" fill="black"/>
</g>
</svg>
