<svg width="24" height="25" viewBox="0 0 24 25" fill="none" xmlns="http://www.w3.org/2000/svg">
<path fill-rule="evenodd" clip-rule="evenodd" d="M12 19.0898C11.0807 19.0898 10.1705 18.9088 9.32122 18.557C8.47194 18.2052 7.70026 17.6896 7.05025 17.0396C6.40024 16.3896 5.88463 15.6179 5.53284 14.7686C5.18106 13.9193 5 13.0091 5 12.0898C5 11.1706 5.18106 10.2603 5.53284 9.41106C5.88463 8.56178 6.40024 7.79011 7.05025 7.1401C7.70026 6.49009 8.47194 5.97447 9.32122 5.62269C10.1705 5.2709 11.0807 5.08984 12 5.08984C13.8565 5.08984 15.637 5.82734 16.9497 7.1401C18.2625 8.45285 19 10.2333 19 12.0898C19 13.9464 18.2625 15.7268 16.9497 17.0396C15.637 18.3523 13.8565 19.0898 12 19.0898ZM3 12.0898C3 10.9079 3.23279 9.73762 3.68508 8.64569C4.13738 7.55376 4.80031 6.56161 5.63604 5.72588C6.47177 4.89016 7.46392 4.22722 8.55585 3.77493C9.64778 3.32264 10.8181 3.08984 12 3.08984C13.1819 3.08984 14.3522 3.32264 15.4442 3.77493C16.5361 4.22722 17.5282 4.89016 18.364 5.72588C19.1997 6.56161 19.8626 7.55376 20.3149 8.64569C20.7672 9.73762 21 10.9079 21 12.0898C21 14.4768 20.0518 16.766 18.364 18.4538C16.6761 20.1416 14.3869 21.0898 12 21.0898C9.61305 21.0898 7.32387 20.1416 5.63604 18.4538C3.94821 16.766 3 14.4768 3 12.0898ZM10.707 11.5058L10.779 13.6058H12.543L12.567 12.5858C13.007 12.5218 13.391 12.3858 13.719 12.1778C14.047 11.9698 14.299 11.7058 14.475 11.3858C14.659 11.0578 14.751 10.6898 14.751 10.2818C14.751 9.74584 14.623 9.27384 14.367 8.86584C14.1141 8.45274 13.7531 8.11663 13.323 7.89384C12.883 7.66184 12.375 7.54584 11.799 7.54584C11.111 7.54584 10.531 7.71384 10.059 8.04984C9.59921 8.37964 9.26833 8.85899 9.123 9.40584L10.803 9.86184C10.8771 9.67519 11.007 9.51595 11.175 9.40584C11.351 9.28584 11.559 9.22584 11.799 9.22584C12.143 9.22584 12.423 9.32584 12.639 9.52584C12.7455 9.62011 12.8298 9.7368 12.8858 9.86751C12.9418 9.99823 12.9682 10.1397 12.963 10.2818C12.963 10.6498 12.847 10.9258 12.615 11.1098C12.383 11.2858 12.079 11.3898 11.703 11.4218L10.707 11.5058ZM10.887 15.9458C11.103 16.1618 11.359 16.2698 11.655 16.2698C11.959 16.2698 12.219 16.1618 12.435 15.9458C12.651 15.7298 12.759 15.4698 12.759 15.1658C12.7603 15.0225 12.7322 14.8804 12.6765 14.7483C12.6208 14.6162 12.5386 14.497 12.435 14.3978C12.334 14.2934 12.2127 14.2108 12.0786 14.155C11.9444 14.0993 11.8003 14.0717 11.655 14.0738C11.5116 14.0726 11.3696 14.1006 11.2375 14.1564C11.1054 14.2121 10.9861 14.2943 10.887 14.3978C10.7834 14.497 10.7012 14.6162 10.6455 14.7483C10.5898 14.8804 10.5617 15.0225 10.563 15.1658C10.563 15.4698 10.671 15.7298 10.887 15.9458Z" fill="#121117"/>
</svg>
